<?xml version="1.0" encoding="utf-8"?>
<!-- Generator: Adobe Illustrator 28.1.0, SVG Export Plug-In . SVG Version: 6.00 Build 0)  -->
<svg version="1.1" id="Ebene_1" xmlns="http://www.w3.org/2000/svg" xmlns:xlink="http://www.w3.org/1999/xlink" x="0px" y="0px"
	 viewBox="0 0 602.8 600" style="enable-background:new 0 0 602.8 600;" xml:space="preserve">
<g>
	<path d="M0,317c1.3-11.1,2-22.2,3.9-33.2C16.1,210.7,52,151.8,111.4,107.8c59.5-44.1,126.8-60.7,200.1-50.4
		C427.9,73.6,520.3,164,540.9,280.4c25.9,146-71.4,286.9-217.5,314.6c-12.1,2.3-24.4,3.4-36.5,5c-9.7,0-19.3,0-29,0
		c-1.1-0.2-2.2-0.6-3.4-0.7c-59.9-4.2-113-25.6-158.5-64.7C43.6,489.4,12.4,432.3,2.8,363.7C1.6,355.2,0.9,346.5,0,338
		C0,331,0,324,0,317z M102.6,497.5c0.1-1.8,0.3-3.6,0.3-5.5c0-109.8,0-219.6,0-329.3c0-1.4,0-2.8,0-5.2c-1.4,1.3-2.1,1.9-2.8,2.5
		c-37.3,39.1-60.1,85.3-65.9,139c-8,74.2,13.8,139,64.6,193.9C100.2,494.4,101.3,496,102.6,497.5c1.1,0.9,2.4,1.7,3.4,2.7
		c39.7,37.7,86.5,60.5,141.1,65.9c75.6,7.5,140.6-16.1,195.1-68.9c41.5-42.2,65.4-92.6,69.7-151.8c5.1-71.1-17.6-132.6-66.1-184.7
		c-0.9-1-2-1.8-3.6-3.2c0,2.6,0,4.3,0,5.9c0,90.3,0,180.6,0,270.9c0,21,0,42,0,62.9c-1.3-0.1-2.6-0.2-4-0.2
		c-110.3,0-220.5,0-330.8,0C105.9,497.1,104.2,497.4,102.6,497.5z M118.3,327.2c0,84.9,69.3,154.5,154,154.6
		c85.1,0.1,154.6-69.3,154.7-154.4c0.1-85.3-68.9-154.6-154.2-154.7C187.5,172.7,118.3,241.9,118.3,327.2z M441.8,156.9
		c-103-101.9-259.3-84.3-337.5,0C216.6,156.9,328.8,156.9,441.8,156.9z M298.5,167.3c73.3,16.4,117.8,61.1,134,134.8
		c0-45.2,0-89.9,0-134.8C387.6,167.3,343.1,167.3,298.5,167.3z M432.5,352.2c-16.1,73.8-60.8,118.6-134,135c44.5,0,89.1,0,134,0
		C432.5,442,432.5,397.3,432.5,352.2z M112.8,301.6c16.2-73.3,60.7-118.1,133.9-134.3c-44.4,0-88.9,0-133.9,0
		C112.8,212.3,112.8,257,112.8,301.6z M112.9,353c0,44.5,0,89.2,0,134.2c44.9,0,89.3,0,134,0C173.6,470.7,129,426.1,112.9,353z"/>
	<path d="M602.8,30c-0.2,3.3-0.6,6.6-0.6,9.9c-0.9,59.9-1.7,119.9-2.5,180.4c-1.2-0.9-2.1-1.4-2.8-2.2
		c-69.6-71.7-139.2-143.3-208.7-215c-0.9-0.9-1.5-2.1-2.3-3.2c4.7,0,9.3,0,14,0c2.1,0.2,4.3,0.6,6.4,0.6
		c39.2,0.5,78.5,1.1,117.7,1.6c26.3,0.3,52.5,0.6,78.8,0.8C602.8,12,602.8,21,602.8,30z"/>
	<path d="M343,256.9c0,46.9,0,93.6,0,140.8c-46.9,0-93.7,0-140.8,0c0-46.9,0-93.6,0-140.8C249,256.9,295.9,256.9,343,256.9z"/>
</g>
</svg>
