<?xml version="1.0" encoding="utf-8"?>
<!-- Generator: Adobe Illustrator 28.1.0, SVG Export Plug-In . SVG Version: 6.00 Build 0)  -->
<svg version="1.1" id="Ebene_1" xmlns="http://www.w3.org/2000/svg" xmlns:xlink="http://www.w3.org/1999/xlink" x="0px" y="0px"
	 viewBox="0 0 500 536" style="enable-background:new 0 0 500 536;" xml:space="preserve">
<g>
	<path d="M500,72c-5.1,37.4-25.5,68.6-41.6,101.5c-5.6,11.4-8.6,23.4-9.5,35.9c-0.2,3.3-0.1,6.7,0.6,9.9c1.4,7.1,6.2,11.3,13.3,9.7
		c7.5-1.7,14.7-5,21.8-8.1c3.3-1.4,6.2-3.8,9.9-6.1c-1.9,7-5,12.1-9.6,17c-11.6,12.4-22.7,25.3-33.5,38.4
		c-28.2,34.4-56.7,68.6-88.7,99.6c-22.6,21.9-48.1,39.5-79,48c-10.4,2.9-20.7,2.7-31-1c-3.9-1.4-8.1-1.7-12.2-2.6
		c-26.6-6.1-46.4-21-59.3-45.6c4-6,10.8-7.5,17.1-9.7c0.8-0.3,2.3,1.5,3.4,2.4c9.7,8.1,18.8,17.1,29.1,24.3
		c19.9,13.6,40.6,13.3,61.8,1.9c6.2-3.3,7.6-6.9,7.3-13.4c-1.3-34.1-2.1-68.3-3.1-102.4c-0.1-2.4-0.3-4.9-0.5-8.2
		c-15.3,13.6-29.8,26.6-44.8,40c0-19.4,0-38.2,0-57.1c-3.6-1.3-6.4,0.2-9.2,2.7c-8.5,7.7-17.3,15.1-26.3,22.9
		c-6.9-6.6-13.5-13.1-20.4-19.4c-1.3-1.1-4-2-5.4-1.4c-25,9.3-49.8,18.8-74.7,28.2c-0.4,0.2-0.8,0.5-1.7,1.1
		c7.4,14.4,18.7,24.7,32.9,33.2c-3.5,7.8-7,15.4-10.6,23.4c-18.3-13.7-34.1-28.8-44.2-48.9c-13.8-27.5-12.1-54.6,2.8-81.2
		c12.2-21.8,28.6-40.5,44.9-59.3c11.7-13.5,23.5-26.9,35.7-39.8c8.7-9.1,17.9-17.8,27.5-26.1c19.6-17,36.1-36.9,52.1-57.2
		c3.8-4.8,7.5-9.7,12.1-15.5c-1.3,7-2.7,12.7-3.3,18.4c-0.5,4.7-0.6,9.7,0.2,14.4c1.6,9.3,7.4,13.4,16.7,12.5
		c11.6-1.2,21.9-6.1,30.7-13.5c11.1-9.3,23.7-15.9,36.7-22c22.6-10.5,46.3-16.7,71.2-18.1c0.9-0.1,1.8-0.5,2.8-0.8c1,0,2,0,3,0
		c8,1.4,16.2,2.2,24,4.2c24.2,6.2,41.8,20,48.5,45.2c1.1,4.1,1.7,8.4,2.5,12.6C500,65.3,500,68.7,500,72z M271,257.6
		c0.6,0.2,1.2,0.3,1.7,0.5c1-0.8,2-1.6,2.9-2.4c38-34.2,76-68.5,114.1-102.6c1.9-1.7,4.9-2.9,7.4-2.8c16.3,0.3,32.6,0.8,48.9,1.5
		c3.2,0.1,4.8-0.9,6.1-3.7c6.1-13.1,12.8-26,18.3-39.4c3.9-9.5,7-19.5,8.9-29.5c6.9-35.6-11.9-59.1-48.1-60.5
		c-22.4-0.9-43.6,5-64,13.1c-12.8,5.1-24.6,12.5-36.6,19.4c-14.1,8.2-27.9,16.9-41.7,25.5c-7.4,4.6-14,4.7-19.1,0.9
		c-4.9-3.7-10.2-6.9-15.2-10.4c-2.1-1.4-3.7-1.5-5.6,0.4c-5.2,5-10.6,9.6-15.8,14.6c-1.1,1.1-1.9,3.1-1.7,4.6
		c1,10.8,2.3,21.5,3.5,32.2c1.3,11.2,2.7,22.4,4,33.9c15.8-3.7,31.1-7.2,46.9-10.9c-2.9,15.3-5.8,29.8-8.5,44.3
		c-2.2,11.6-5.2,23.1-6.2,34.8C270.2,233.3,271,245.5,271,257.6z M432.9,240.8c-2.1-3.2-3.4-6.3-5.7-8.1c-5.8-4.5-7.1-10.7-7-17.3
		c0.1-8.3,2.7-16,7.2-23.1c4.3-6.8,8.4-13.8,13.1-21.5c-13-0.6-24.9-1.3-36.9-1.7c-1.4,0-3,1.2-4.2,2.2c-25.7,22.9-51.5,45.9-77,69
		c-1.8,1.6-3.2,4.7-3.3,7.1c-1.1,41-1.9,81.9-2.7,122.9c0,1.4,0,2.8,0,4.2c0.8,0,1.2,0.1,1.4,0c0.7-0.4,1.4-0.8,2.2-1.2
		c9.3-4.9,15.9-12.7,22.9-20.4c20.3-22.7,41.5-44.6,61.6-67.5C416.1,272,426,257.1,432.9,240.8z M108.2,260.9c2-0.7,3.4-1.2,4.7-1.7
		c27.7-10.5,55.3-21,82.9-31.7c3.1-1.2,5-1,7.4,1.3c5,4.8,10.3,9.3,15.6,14.1c1.2-1,2.1-1.7,3-2.4c7.6-6.8,14.5-14.8,26.2-14.6
		c0.9,0,2.4-2.1,2.7-3.4c1.5-5.5,2.6-11,3.8-16.5c2.7-12.1,5.5-24.2,8.3-36.9c-15,3-29.2,5.9-43.9,8.9c-2.7-24.7-5.4-49.1-8.2-74.1
		c-1.3,1.1-2,1.6-2.5,2.2c-22.1,22-43.2,44.9-62.3,69.5c-13.4,17.3-25.7,35.3-33.6,55.9C108.8,240.7,107.1,250.3,108.2,260.9z"/>
	<path d="M0,515c3.3-5.8,6.5-11.6,9.8-17.4c9.8,8.3,18.6,15.7,27.7,23.4c-4.5,7.1-11.7,11.4-19.4,15c-2.3,0-4.7,0-7,0
		c-5.9-2.9-8.6-8.3-11-14C0,519.7,0,517.3,0,515z"/>
	<path d="M91.1,461.8c-4.8,21.6-13.6,39.1-32.6,49.8c-7.1,4-15,3.8-21.3-1.2c-18.9-15-28-29.5-15.3-55.3c0.9-1.9,2.8-3.9,4.6-4.8
		c11.1-5.6,22.3-11.1,33.7-16.3c1.5-0.7,4.3-0.4,5.5,0.6c7.2,5.9,14.4,11.9,21,18.4C89.1,455.3,89.9,459.2,91.1,461.8z"/>
	<path d="M190.9,350.1c-7.3,5.9-15.5,12.1-23.3,18.9c-3.6,3.1-6.3,7.2-9.6,10.7c-1.2,1.3-3.3,3.1-4.6,2.8c-1.7-0.4-3.2-2.5-4.2-4.1
		c-1-1.6-1.4-3.7-2.2-5.5c-1.2-2.6-2.8-4.2-6.1-3.8c-5.2,0.5-9.2-2.2-12.4-5.4c8.1-13.3,15.9-26.4,23.9-39.5
		c0.8-1.2,2.3-2.8,3.5-2.9c6.1-0.2,12.4-0.5,18.4,0.3c9.2,1.2,12.7,5.7,13.7,15C188.6,340.8,189.9,345.1,190.9,350.1z"/>
	<path d="M67.7,428.5c5.3-4.8,9.5-9.7,14.7-13c8.3-5.1,13.8-11.3,14-21.4c0-0.4,0.4-0.9,0.9-2c13.4,4.7,24.5,12,30.8,25
		c-8.4,6.1-16.7,11.6-24.4,17.8c-3.5,2.8-6.2,6.8-8.8,10.6c-2.8,4.1-5.9,4.6-9.8,0.7c-2.8-2.8-5.3-5.9-8.1-8.8
		C74.5,434.8,71.6,432.2,67.7,428.5z"/>
	<path d="M148.2,398.7c-1.5,4.9-2.7,9.9-4.8,14.5c-0.7,1.6-3.9,3.7-5.2,3.3c-2.1-0.7-4.9-3.2-5.1-5.1c-0.6-5.7-3.4-9.9-7.7-12.8
		c-6.2-4.1-13-7.2-19.4-11c-1.9-1.2-3.8-3.1-4.6-5.1c-0.3-0.8,1.8-3.2,3.2-4.2c12.3-8.6,24.2-7.9,35.5,1.8
		C145.8,384.9,147.4,391.3,148.2,398.7z"/>
</g>
</svg>
