<?xml version="1.0" encoding="utf-8"?>
<!-- Generator: Adobe Illustrator 28.1.0, SVG Export Plug-In . SVG Version: 6.00 Build 0)  -->
<svg version="1.1" id="Ebene_1" xmlns="http://www.w3.org/2000/svg" xmlns:xlink="http://www.w3.org/1999/xlink" x="0px" y="0px"
	 viewBox="0 0 704 600" style="enable-background:new 0 0 704 600;" xml:space="preserve">
<g>
	<path d="M651,0c2,0,4,0,6,0c1.6,3.1,3.6,6,4.7,9.2c2.4,7.1,5.3,13.8,10.1,19.8c5.7,7.1,8.2,15.2,3.7,23.2c2.5,2.9,4.8,5.3,6.6,8
		c5.6,8.8,5.6,18.6,4.2,28.5c-0.5,3.6-0.3,6.5,1.8,9.8c9.9,15.9,11.4,32.7,4.4,50.1c-4.1,10.1-10.3,18.9-18.1,26.5
		c2.8-9.6,5.7-19.2,2.4-28.9c-1.7-4.9-4.7-10.7-8.8-13.2c-3.7-2.3-7.6-3.8-9.7-8.4c-8,11.5-19.6,14.4-32.2,15.1
		c-0.1,1.5-0.2,2.7-0.3,3.8c-1.7,19.4-3.5,38.8-9.9,57.4c-2.4,6.9-5.1,13.6-11.3,19.2c0-2.9,0.2-4.9,0-6.9
		c-1.9-12.8-3.8-25.7-5.8-38.5c-0.2-1-1.1-2.3-1.9-2.6c-6.7-2-9.4-7.4-11.5-14.1c-6.7,7.2-12.9,14.1-19.2,20.8
		c-1.4,1.5-3.3,2.7-5.1,3.7c-4.8,2.6-10.3,4.4-14.4,7.8c-11.4,9.4-24.5,13.9-38.6,17.6c-12.8,3.4-25,8.8-37.3,13.7
		c-6.6,2.6-8.6,8.2-9.6,15c-2.4,16.1-5.6,32.1-8.6,48.1c-1.6,8.5-3.5,17-4.6,25.5c-0.4,3.3,0.9,6.9,1.5,10.3
		c3.4-0.8,7.3-0.9,10.2-2.6c9.1-5.4,18.7-7.5,29.2-6.8c8.1,0.5,15.8-1.2,23.4-4.3c3.3-1.3,7.3-2.2,10.7-1.6
		c8.6,1.5,17.3,3.5,25.5,6.3c3.3,1.1,5.7,5,8.3,7.9c2,2.2,3.3,5.5,5.6,6.7c6.6,3.4,13.6,5.9,19.6,8.4c3.3-3.6,6.3-6.8,9.1-10.2
		c2.1-2.5,4.9-4.8,5.7-7.7c1.9-7,3.2-14.3,4.1-21.5c0.8-7,0.8-14.1,1.2-22.4c15.5,20.1,22.3,41.3,18.5,64.7c6.1,1.6,12.2,3,18.1,5
		c3.2,1.1,5.1,0.8,7.1-2.1c1.8-2.4,4.4-4.3,6.8-6.2c1.8-1.5,4.4-2.3,5.7-4.1c10.4-15,17.3-31.3,18.4-50.9c8.2,11.9,12,24,13,37.1
		c1.1,13.3-1.8,25.6-10.8,36.9c9.5,0,18.3-2.3,25.2,4.8c0,1.3,0,2.7,0,4c-6.5,6.6-13,13.2-19.4,19.9c-1.5,1.5-2.9,3.4-3.6,5.3
		c-2.8,7.6-5.2,15.4-7.9,23.1c-1.1,3-2.2,6.7-4.5,8.5c-5.5,4.3-11.7,7.5-17.7,11.3c-3.2,2-5.5,1.6-8.1-1.5
		c-4.8-5.7-9.9-11.3-15.5-16.3c-4.5-4-6.8-3.1-10.9,1.3c-3.4,3.6-7.2,7-11.4,9.4c-8.8,5.1-17.9,9.6-26.4,14
		c3.7-11.1,3.7-23.4-0.5-32.2c-13,11.7-27.5,21.1-43.2,28.1c1.7-3.4,3.9-6.5,4.9-9.9c3.6-12.6-5.8-26.7-20-30.5
		c-15.5-4.1-30.7-3.1-45.6,2.7c-10.2,3.9-20.5,7.7-30.5,12.1c-3.1,1.4-6.1,4.1-7.8,7.1c-6.2,10.9-7.1,23.1-7.1,35.3
		c0,33.5,1.5,66.8,12.5,99.7c-10.6-5.1-20.4-10.3-27.9-18.7c-2.4-2.7-3.9-6.9-4.3-10.7c-1.5-12.6-2.2-25.2-3.5-37.8
		c-0.5-5-1.9-9.8-2.9-14.7c-0.5,0-1.1,0-1.6-0.1c0.3,27.8-14.7,50-25.9,74.6c0-6.4-0.9-12,0.2-17.1c4.5-21.4-5.8-41-6.6-62.5
		c-4.5,18.4-8.3,36.1-13.3,53.5c-5,17.3-11.4,34.1-23.8,48.1c1.3-14.8,2.7-29.5,5.6-43.9c1.8-9.1-1.2-15.7-6.4-22.5
		c-14.9,39.3-40.9,69.8-72.9,96.1c1.6-9.9,3.6-19.6,6.2-29.1c1.9-7,5.1-13.8,6.5-20.8c4.1-20.2,7.7-40.5,11.5-60.8
		c0.3-1.8,0.6-3.6,0.8-5.4c-1.7,0.8-2.5,1.8-3.3,2.9c-30.1,40.5-56.6,83.9-92.7,119.8c-0.3,0-0.7,0-1,0c3-9.5,7-18.8,8.6-28.5
		c2.4-14.5,6.9-28,13.7-40.9c2.2-4.2,3.6-8.9,5.2-13.5c2.5-7,3.9-14.6,7.2-21.1c14.7-28.7,29.9-57.1,45-85.6
		c4.4-8.3,8.9-16.5,14-25.9c-1.6,1.1-2,1.3-2.3,1.7c-21.1,28.3-42.5,56.3-63.2,84.9c-11.9,16.4-22.4,33.8-39.2,46.2
		c-10.2,7.5-20.1,15.6-30.1,23.4c-0.4-0.3-0.7-0.7-1.1-1c10.6-14.1,18.5-29.5,25.3-47.1c-32.8,26.9-66.5,49.6-104.7,65.1
		c29.6-22.4,58.7-45.2,81.4-74.4c-11.6,1.5-22.9,2.9-35.5,4.6c29.7-26.7,46-61,67.5-91.6c-4.7,3.1-9.1,6.5-12.8,10.5
		c-10.7,11.6-20.5,24.2-31.9,35.1c-21.2,20.2-45.6,34.8-75.8,37.6c-10.3,0.9-20.5,2.2-28.9,3.2c14.3-10.6,30.3-21.6,45.4-33.8
		c20.6-16.6,36.8-34.9,39.7-42.9c-18,11.2-36.6,19.8-57.7,22.1c13.1-7.8,26.2-15.2,38.9-23.4c12.6-8.2,23.9-18.1,32-31
		c-12.6,9.3-27,8.5-42.4,8.7c15.3-9.7,32.1-25.3,35.8-33c-44,14.9-71.3,21-81.3,17.9c13-4.4,24.7-10.8,34.8-19.6
		c14.1-12.2,27.6-25,41.5-37.5c4.8-4.3,10-8.3,15.1-12.5c-6.2-0.4-12.1-0.3-17.8-1.1c-5.7-0.9-11.3-2.7-16.9-4.2
		c-10.8-2.9-21.4-6.1-32.3-8.6c-6.7-1.6-13.6-2.2-21.4-3.5c4.6-1.9,8.4-3.3,12.1-5.1c20.9-10.3,42.4-19.2,64.8-25.7
		c17.2-5,33-12.7,44.1-27.6c2.6-3.5,5.1-3,8.1-1.3c5.4,3,10.7,6.1,16.2,8.9c5,2.5,10.2,4.5,15.4,6.7c0.2-0.4,0.4-0.8,0.6-1.2
		c-8.7-5.1-15.4-12.1-20.7-20.5c-2.8-4.5-6.7-6.2-12-6.6c-11.2-1-22.4-2.5-33.6-4.3c-8.3-1.4-16.5-4.3-24.8-5.2
		c-19.8-2-39.2-5-57.7-12.9c-13-5.6-26.7-8.8-40.9-4.2c-4.6,1.5-9,3.3-13.5,5c0-0.3,0-0.7,0-1c7.4-6.8,14.4-14.2,22.4-20.1
		c7.8-5.8,16.8-10.1,25.2-15.2c2.6-1.6,4.9-3.9,7.3-5.8c-10.3-0.7-20,1.6-30.4-2c2.5-1.5,4.3-2.8,6.2-3.7
		c15.4-7.5,30.8-15,46.2-22.5c6.2-3,12.4-3.8,18.8-1.1c6.6,2.7,13.2,2.8,20,0.5c26.4-8.9,53.5-11.7,81.2-10
		c22.1,1.4,44.2,2.4,65.8,8c1.6,0.4,3.7,0.2,5.2-0.6c5.7-3,11.2-6.3,17.2-9.8c-10.5-7.7-22.7-10.4-34.9-14.9
		c5.3-0.9,9.9-1.3,14.2-2.6c19.3-6.2,38.8-7.3,58.7-4.2c7.4,1.2,14.8,3.1,22.1,2.9c19.1-0.5,38.3-1.6,57.4-3c11.4-0.9,23-2,34.1-4.6
		c8.6-2.1,15.9-1.2,22.5,4c4.7,3.8,8.5,8.6,13,13.3c1.6-1.3,3.6-2.8,5.5-4.5c6.3-5.8,13.4-9.8,22.1-10.6c5.9-0.5,10.5-3.1,14.2-7.9
		c7.5-9.7,18.3-13.7,29.9-16.6C566,48.4,588,42.4,610,36.5c2-0.5,3.9-1.8,5.4-3.2c3-2.9,5.4-6.4,8.5-9.1C633.1,16.3,638.4,4.1,651,0
		z M401.7,174.7c9.7-14.8,27.8-18.7,39.8-31.4c-9.3,0.7-17.7,1.6-26.1,1.9c-4.8,0.2-10.2,1-14.3-0.8c-19.1-8.2-37.7-6-56.5,0.5
		c-0.9,0.3-1.8,0.9-3.2,1.6C364.5,150.3,382.5,163.1,401.7,174.7z"/>
</g>
</svg>
