<?xml version="1.0" encoding="utf-8"?>
<!-- Generator: Adobe Illustrator 28.1.0, SVG Export Plug-In . SVG Version: 6.00 Build 0)  -->
<svg version="1.1" id="Ebene_1" xmlns="http://www.w3.org/2000/svg" xmlns:xlink="http://www.w3.org/1999/xlink" x="0px" y="0px"
	 viewBox="0 0 498.2 508.6" style="enable-background:new 0 0 498.2 508.6;" xml:space="preserve">
<style type="text/css">
	.st0{fill:#FFFFFF;}
</style>
<g>
	<path class="st0" d="M297.3,42.5c-2.3-0.8-3.5-1.3-4.7-1.5c-14.4-3.2-28.8-7.3-43.4-9.4c-34.5-5-67.7-0.4-98.9,15.9
		c-10.9,5.7-22.6,8.7-35.6,9.6c1.1,3.4,1.8,6.8,3.4,9.8c5.5,10.5,5.6,21.4,4.8,32.9c-2.8,40.3,3.2,79,23.4,114.7
		c5.5,9.8,12.2,19,18.4,28.5C134,166,187.3,44.5,297.3,42.5z M418.6,0c-8.1,10.8-17.6,16.6-31.4,13.8c-15.9-3.3-31.9-2.4-47.6,1.7
		c-16.4,4.3-32.8,8.9-49.1,13.4c-1,0.3-1.9,0.7-4.1,1.7c31.8,3.5,58.2,15.5,80,36.9c6.9,6.8,14.2,12.9,22.3,18.2
		c6.4,4.2,12.3,9.2,17.7,14.6c27.2,26.9,41.1,60.4,47.8,97.4c1,5.5,1.7,11.1,2.5,16.6c2-9.1,3.1-18.1,4-27.2
		c2.9-30.4,3.1-60.8-1.7-91.1c-5.1-32.6-19-61.8-35.7-89.8C421.9,4,420.1,2.1,418.6,0z M82.9,298c22.2,17.5,113.5,53,144,55.6
		c-2.4-2-4-3.3-5.6-4.8c-24.6-23.4-44.3-49.9-54.5-82.8c-0.5-1.5-1.6-3-2.7-4.1c-16.6-15.9-28-35.1-35.8-56.3
		c-5.1-13.9-8.6-28.3-12.8-42.2c-0.3,0.7-1,2.1-1.6,3.6c-6.9,18.4-9.3,37.7-11.8,57c-2.2,16.8-3.6,33.7-6.2,50.5
		C94.5,283.4,91.9,292.5,82.9,298z M307.2,432c1.1-3.9,1.7-7.4,3.1-10.5c7.6-17.1,16.7-33.4,30.4-46.5c15.6-15,31.7-29.5,47.3-44.4
		c11.1-10.5,20.7-22.3,28.4-35.6c-64.6,67.6-175.8,58.3-229.7-12.6c3.8,8.2,7.6,16.5,12.5,24c22.2,33.8,50.3,62.3,80.6,88.8
		c5.3,4.7,10.1,10.1,14.3,15.8C299,417.5,302.8,424.7,307.2,432z M474.4,170c-0.2,0.1-0.4,0.1-0.6,0.2c-0.9,10.9-1.5,21.7-2.7,32.6
		c-2.8,24.7-9.8,47.8-24.8,68.1c-3.8,5.2-7.5,10.6-10.3,16.4c-16.3,33.8-40.2,60.5-72.8,79.5c-1,0.6-1.8,1.4-3.3,2.5
		c39.5,2,124.4-30,138.4-50.8c-2.2-3.3-5.2-5.9-5.9-9.1c-1.6-6.6-3-13.5-2.7-20.2c1.2-35.7-3.6-70.7-11.6-105.4
		C476.8,179.1,475.6,174.6,474.4,170z M315.8,326.4c0.9,0,1.8,0.1,2.7,0c5.9-0.7,12-0.9,17.8-2.4c45.7-11.9,80.1-40,108.3-76.8
		c1.5-1.9,1.9-5.2,1.8-7.8c-0.5-7-1.4-13.9-2.4-20.8c-4.7-32.2-13.1-63.2-31.6-90.6c-7.1-10.5-15.3-19.9-24.8-28.4
		c-0.4,0.6-0.6,0.8-0.5,0.9c1.1,1.9,2.2,3.7,3.3,5.6c28,45.5,31.3,92.3,6.3,139.9C378.4,280.9,351.1,307.4,315.8,326.4z M367.8,234
		c4.4-6.4,9.2-12.6,13.2-19.2c13.1-21.8,19.7-45,13.3-70.6c-2.9-11.4-8.2-20.6-18.7-27c-15.6-9.6-31.8-17.5-49.5-21.9
		c-22.2-5.5-44.2-5.6-65.6,3.6c-2.9,1.3-5.7,2.8-8.5,4.2c3.1,0.7,5.7,0.6,8.4,0.5c19.8-0.7,38.9,2.4,56.7,11.3
		c24.7,12.3,44.1,30,52.4,57.2C375.7,192.6,374.7,213.3,367.8,234z M397.6,211.9c-0.4-0.2-0.8-0.4-1.2-0.5c-0.8,1-1.6,2.1-2.3,3.1
		c-12,16.8-25.2,32.3-42,44.4c-24.9,18-51.6,23-80.6,10.9c-13.7-5.7-25.6-14.2-36.6-24.1c-0.9-0.8-1.8-1.4-3.4-2.6
		c0.4,1.7,0.6,2.5,0.8,3.3c0.4,1.3,0.8,2.5,1.3,3.8c12,28.9,32.2,50.9,57.7,68.5c4.4,3,8,3.3,12.6,0.6c36-21.1,64.9-49.2,84.9-86
		C392.5,226.5,394.7,219,397.6,211.9z M276.5,324.6c-1.8-1.4-3.1-2.4-4.4-3.4c-25.4-19.2-45.1-42.8-55.3-73.3
		c-3.6-10.7-7.9-20.4-14.7-29.7c-12.1-16.5-18.6-35.9-23-55.8c-0.6-2.9-1-5.9-1.7-9.7C150.8,231.7,205.8,310.8,276.5,324.6z
		 M376.8,105.8c-11.9-20.3-26.4-37.7-47.4-48.9c-11.6-6.2-23.3-8.7-36.8-5.1c-35.6,9.5-66.5,26-89.9,55.1c-1.8,2.2-3.4,4.5-5,6.8
		c-1.6,2.3-3.1,4.6-4.6,6.9C251.1,72.1,312.2,69.4,376.8,105.8z M288.7,119c-1.6-0.5-2.2-0.8-2.9-0.9c-30.3-5-59-0.9-85.9,14.3
		c-10.8,6.1-11.9,8.2-10.4,20.6c2.2,18.7,10.7,34.8,21.5,49.8c0.7,1,1.6,1.8,2.7,3C223,163.3,252.7,138.9,288.7,119z M261.8,153.4
		c-1.4,0.8-1.9,1-2.2,1.3c-19.6,17.5-29.9,40.3-36.4,65.1c-0.4,1.4,0.9,3.8,2.1,5c15.7,14.6,33.9,24.6,55,28.6
		c9,1.7,18.1,2.1,27.3,0.7c-0.9-0.8-1.8-1.1-2.7-1.5c-19.2-7.3-35-19-46.3-36.3c-3-4.6-4.6-9.3-4.7-14.9
		C253.8,185.3,256.4,169.7,261.8,153.4z M276,213.7c-0.2,0.2-0.4,0.5-0.5,0.7c2.5,2.3,4.9,4.7,7.4,7c17.4,15.7,37,25.8,61.3,24.6
		c3.2-0.2,5.2-1.2,6.8-3.9c10-16.2,13.1-33.6,9.5-52.2c-1.7-8.8-4.6-17.1-10.1-25c-0.4,7.2-0.5,13.6-1.3,20
		c-1.9,15-7.1,27.7-24.1,31.1c-1.1,0.2-2.2,0.8-3.3,1.2c-14.2,5.1-28.1,4.3-41.8-1.7C278.6,214.9,277.3,214.3,276,213.7z
		 M265.5,178.3c8.7-5.6,17.4-11.7,26.6-16.7c8.5-4.6,17.2-3.7,25.4,2.1c8.9,6.2,16.9,13.1,23.6,22.2c0.3-7.4,0.6-14.7-0.7-21.7
		c-3-16.2-14-27.1-26.5-36.7c-2.4-1.9-4.4-2.2-7.2-0.9C283.7,137,270.6,155,265.5,178.3z"/>
	<path d="M0,507.6c1.2-5,2.4-9.9,3.5-14.9c4.8-20.4,15.9-36.7,32.4-49.6c4.7-3.7,9.4-7.4,14.3-10.9c2.4-1.7,2.9-3.3,2.3-6.2
		c-3.5-17.7,6-37.1,21.5-44.4c0.5-0.3,1.1-0.5,2.6-1.1c-7.4,10.3-9.1,21-7.8,32.4c0.7,5.9,1.7,6.9,7.5,5.1
		c22.5-7.1,45-14.4,67.5-21.7c3.3-1.1,6.6-2.4,9.9-3.5c16.3-5.4,28.5-15.5,36-31c0.8-1.6,1.8-3.1,2.8-4.9c13.6,3,27,6,42.1,9.4
		c-5.9,6.5-10.6,12.5-16.2,17.6c-11.8,10.8-25.9,18-40.2,24.9c-5.2,2.5-5.5,4.6-1.3,8.7c5.7,5.5,13.2,7.6,27,7.3
		c-1.4,1-2.1,1.8-3,2.2c-15.7,7.3-31,8.5-45.6-2.6c-0.9-0.7-2.5-1-3.6-0.7c-32.1,8.2-64.2,16.2-94.2,30.9
		C33.9,466.1,15.3,482.8,2.6,506c-0.6,1-1.7,1.7-2.6,2.6C0,508.2,0,507.9,0,507.6z"/>
	<path d="M297.3,42.5c-110,2-163.3,123.5-132.6,200.5c-6.2-9.5-12.8-18.7-18.4-28.5c-20.2-35.6-26.2-74.4-23.4-114.7
		c0.8-11.6,0.6-22.5-4.8-32.9c-1.6-3-2.2-6.4-3.4-9.8c13-0.9,24.7-3.9,35.6-9.6c31.2-16.3,64.4-20.9,98.9-15.9
		c14.6,2.1,28.9,6.2,43.4,9.4C293.8,41.2,295,41.7,297.3,42.5z"/>
	<path d="M418.6,0c1.5,2.1,3.3,4,4.6,6.3c16.8,28,30.6,57.1,35.7,89.8c4.7,30.3,4.6,60.7,1.7,91.1c-0.9,9.1-2,18.1-4,27.2
		c-0.8-5.5-1.5-11.1-2.5-16.6c-6.7-37-20.6-70.5-47.8-97.4C400.9,95,395,90,388.6,85.8c-8.1-5.3-15.4-11.5-22.3-18.2
		c-21.8-21.4-48.2-33.4-80-36.9c2.3-0.9,3.2-1.4,4.1-1.7c16.4-4.5,32.7-9.1,49.1-13.4c15.7-4.1,31.6-5,47.6-1.7
		C400.9,16.6,410.5,10.8,418.6,0z"/>
	<path d="M82.9,298c9-5.6,11.6-14.6,13-23.6c2.6-16.8,4-33.7,6.2-50.5c2.6-19.3,5-38.6,11.8-57c0.6-1.5,1.2-2.9,1.6-3.6
		c4.1,13.9,7.7,28.4,12.8,42.2c7.8,21.3,19.3,40.5,35.8,56.3c1.2,1.1,2.2,2.6,2.7,4.1c10.2,32.9,29.9,59.4,54.5,82.8
		c1.5,1.5,3.2,2.8,5.6,4.8C196.3,351,105.1,315.6,82.9,298z"/>
	<path d="M307.2,432c-4.4-7.3-8.2-14.5-13-21c-4.2-5.7-9-11.1-14.3-15.8c-30.3-26.5-58.5-55-80.6-88.8c-4.9-7.5-8.7-15.8-12.5-24
		c53.9,70.9,165.1,80.2,229.7,12.6c-7.7,13.3-17.3,25-28.4,35.6c-15.7,14.9-31.7,29.5-47.3,44.4c-13.7,13.1-22.8,29.4-30.4,46.5
		C308.9,424.6,308.4,428.1,307.2,432z"/>
	<path d="M474.4,170c1.2,4.5,2.5,9.1,3.5,13.6c8.1,34.7,12.8,69.7,11.6,105.4c-0.2,6.7,1.2,13.6,2.7,20.2c0.8,3.2,3.7,5.8,5.9,9.1
		c-14,20.8-98.9,52.8-138.4,50.8c1.5-1.1,2.3-1.9,3.3-2.5c32.5-18.9,56.4-45.7,72.8-79.5c2.8-5.8,6.4-11.2,10.3-16.4
		c15.1-20.3,22.1-43.4,24.8-68.1c1.2-10.8,1.8-21.7,2.7-32.6C474,170.2,474.2,170.1,474.4,170z"/>
	<path d="M315.8,326.4c35.3-19,62.5-45.5,80.9-80.4c25-47.6,21.7-94.4-6.3-139.9c-1.1-1.8-2.2-3.7-3.3-5.6c0-0.1,0.2-0.3,0.5-0.9
		c9.5,8.5,17.7,17.9,24.8,28.4c18.5,27.4,27,58.3,31.6,90.6c1,6.9,1.9,13.9,2.4,20.8c0.2,2.6-0.3,5.9-1.8,7.8
		c-28.1,36.8-62.5,64.8-108.3,76.8c-5.8,1.5-11.9,1.7-17.8,2.4C317.7,326.5,316.8,326.4,315.8,326.4z"/>
	<path d="M367.8,234c6.9-20.7,7.9-41.4,1.6-62c-8.3-27.2-27.7-44.9-52.4-57.2c-17.8-8.8-36.9-11.9-56.7-11.3
		c-2.7,0.1-5.3,0.2-8.4-0.5c2.8-1.4,5.6-3,8.5-4.2c21.4-9.2,43.4-9.1,65.6-3.6c17.8,4.4,34,12.3,49.5,21.9
		c10.5,6.4,15.8,15.6,18.7,27c6.4,25.6-0.2,48.7-13.3,70.6C377,221.4,372.2,227.6,367.8,234z"/>
	<path d="M397.6,211.9c-2.9,7.1-5.1,14.6-8.7,21.3c-20,36.7-48.8,64.9-84.9,86c-4.7,2.7-8.3,2.4-12.6-0.6
		c-25.5-17.6-45.7-39.6-57.7-68.5c-0.5-1.2-0.9-2.5-1.3-3.8c-0.2-0.8-0.4-1.6-0.8-3.3c1.5,1.2,2.5,1.9,3.4,2.6
		c11,9.8,22.9,18.3,36.6,24.1c29,12.2,55.7,7.1,80.6-10.9c16.8-12.1,30.1-27.7,42-44.4c0.8-1.1,1.5-2.1,2.3-3.1
		C396.8,211.5,397.2,211.7,397.6,211.9z"/>
	<path d="M276.5,324.6c-70.6-13.8-125.6-92.9-99.2-171.9c0.7,3.8,1.1,6.8,1.7,9.7c4.4,20,10.9,39.3,23,55.8
		c6.8,9.3,11.1,19,14.7,29.7c10.2,30.5,29.9,54.1,55.3,73.3C273.4,322.2,274.7,323.2,276.5,324.6z"/>
	<path d="M376.8,105.8c-64.6-36.4-125.7-33.6-183.7,14.8c1.5-2.3,3-4.6,4.6-6.9c1.6-2.3,3.3-4.6,5-6.8
		c23.4-29.1,54.3-45.6,89.9-55.1c13.5-3.6,25.2-1.1,36.8,5.1C350.4,68,364.9,85.5,376.8,105.8z"/>
	<path d="M288.7,119c-36.1,19.9-65.7,44.3-75,86.8c-1.1-1.2-2-2-2.7-3c-10.8-15-19.3-31-21.5-49.8c-1.5-12.4-0.5-14.5,10.4-20.6
		c26.9-15.2,55.7-19.2,85.9-14.3C286.5,118.3,287.1,118.5,288.7,119z"/>
	<path d="M261.8,153.4c-5.3,16.3-8,31.9-7.8,48c0,5.6,1.7,10.4,4.7,14.9c11.3,17.3,27.1,29,46.3,36.3c0.9,0.3,1.8,0.7,2.7,1.5
		c-9.1,1.4-18.3,1.1-27.3-0.7c-21.2-4.1-39.4-14-55-28.6c-1.2-1.2-2.5-3.6-2.1-5c6.5-24.8,16.8-47.6,36.4-65.1
		C259.9,154.4,260.4,154.2,261.8,153.4z"/>
	<path d="M276,213.7c1.3,0.6,2.6,1.2,3.9,1.8c13.7,6.1,27.6,6.8,41.8,1.7c1.1-0.4,2.2-0.9,3.3-1.2c17-3.5,22.2-16.1,24.1-31.1
		c0.8-6.4,0.9-12.8,1.3-20c5.5,7.9,8.4,16.2,10.1,25c3.6,18.6,0.4,36-9.5,52.2c-1.7,2.7-3.7,3.7-6.8,3.9
		c-24.2,1.2-43.9-8.8-61.3-24.6c-2.5-2.3-4.9-4.7-7.4-7C275.6,214.1,275.8,213.9,276,213.7z"/>
	<path d="M265.5,178.3c5.2-23.3,18.3-41.3,41.2-51.8c2.8-1.3,4.8-0.9,7.2,0.9c12.5,9.7,23.5,20.5,26.5,36.7c1.3,7,1,14.3,0.7,21.7
		c-6.7-9.1-14.7-16-23.6-22.2c-8.2-5.8-16.9-6.7-25.4-2.1C282.8,166.6,274.2,172.8,265.5,178.3z"/>
</g>
</svg>
